<svg id="Layer_1" enable-background="new 0 0 511.995 511.995" height="512" viewBox="0 0 511.995 511.995" width="512" xmlns="http://www.w3.org/2000/svg"><g clip-rule="evenodd" fill-rule="evenodd"><path d="m314.449 55.452c2.833-4.264 3.369-9.655 1.43-14.392-1.938-4.738-6.1-8.207-11.109-9.261-6.174-1.3-12.416-2.416-18.554-3.32-67.331-9.912-133.993 2.81-187.709 35.818-54.596 33.548-89.363 83.956-97.897 141.94-.151 1.026-.281 2.05-.41 3.075l-.076.605c-.588 4.619.941 9.257 4.16 12.621 2.925 3.057 6.96 4.766 11.155 4.766.422 0 .846-.017 1.271-.052 60.256-4.972 119.349-23.389 170.888-53.261 51.159-29.653 95.024-70.643 126.851-118.539z"/><path d="m332.029 145.256v-62.464c-9.211 12.904-19.24 25.298-30 37.107v24.9c-9.643.416-18.921 1.384-27.827 2.865-21.803 19.776-45.829 37.367-71.562 52.281-16.566 9.602-33.86 18.092-51.689 25.432-66.533 101.187-20.365 261.418 161.8 261.418 270.032.001 254.851-324.695 19.278-341.539z"/></g></svg>